# xmcd
#
# Track frame offsets:
#	150
#	12950
#	31136
#	50968
#	66478
#	79360
#	93866
#	105027
#	124007
#	140152
#	163561
#	181556
#	197374
#	214285
#	233227
#	254633
#
# Disc length: 3567 seconds
#
# Revision: 1
# Processed by: cddbd v1.5.1PL0 Copyright (c) Steve Scherf et al.
# Submitted via: EasyCDDAExtractor 7.5.0.1
#
DISCID=da0ded10
DTITLE=Os Tiranos - 16 Grandes Sucessos
DYEAR=2003
DGENRE=Gaúcha
TTITLE0=Fim de Semana
TTITLE1=Chamamé do Amor
TTITLE2=São Francisco é Terra Boa
TTITLE3=Gaúchos do Litoral
TTITLE4=Nos Tempos de Rodeio
TTITLE5=Rodeio da Saudade
TTITLE6=O Cancioneiro das Coxilhas
TTITLE7=De Sangue Catarinense
TTITLE8=Bamo Cavalo
TTITLE9=Oh! De casa
TTITLE10=Bailando o Chamamé
TTITLE11=Teu Olhar
TTITLE12=Eu Sou da Serra
TTITLE13=Chamaé Sem Fronteiras
TTITLE14=Brasil de Bombacha
TTITLE15=Marca Serrana
EXTD=YEAR: 2003
EXTT0=
EXTT1=
EXTT2=
EXTT3=
EXTT4=
EXTT5=
EXTT6=
EXTT7=
EXTT8=
EXTT9=
EXTT10=
EXTT11=
EXTT12=
EXTT13=
EXTT14=
EXTT15=
PLAYORDER=
